<?xml version="1.0" encoding="UTF-8"?>
<svg width="32" height="32" viewBox="0 0 32 32" xmlns="http://www.w3.org/2000/svg">
  <!-- Фон -->
  <rect width="32" height="32" rx="4" fill="#ffffff"/>
  <!-- Буква T - вертикальная часть с изгибом внизу -->
  <path d="M5 6 Q5 4 7 4 L17 4 L17 8 L14 8 L14 22 Q14 26 10 28 L8 28 Q12 26 12 22 L12 8 L7 8 Q5 8 5 6 Z" fill="#1a4872"/>
  <!-- Зелёный элемент справа -->
  <path d="M17 4 L17 8 L22 8 Q26 8 28 4 L28 4 Q26 6 23 6 L19 6 L19 4 Z" fill="#4cb963"/>
  <path d="M22 8 Q20 12 20 15 L20 15 Q21 12 24 10 Q28 7 28 4 Q26 8 22 8 Z" fill="#4cb963"/>
</svg>
