<?xml version="1.0" encoding="UTF-8"?>
<svg width="32" height="32" viewBox="0 0 32 32" xmlns="http://www.w3.org/2000/svg">
  <rect width="32" height="32" rx="6" fill="#ffffff"/>
  <!-- Буква T (тёмно-синяя) с загнутым концом -->
  <path d="M6 7 Q6 5 8 5 L17 5 L17 9 L13 9 L13 23 Q13 27 9 27 Q11 27 11 23 L11 9 L8 9 Q6 9 6 7 Z" fill="#1a4872"/>
  <!-- Зелёный листок справа -->
  <path d="M17 5 L17 9 L21 9 Q25 9 27 5 Q25 7 22 7 L19 7 L19 5 Z" fill="#3fb55e"/>
  <path d="M21 9 Q19 13 19 16 Q20 13 23 11 Q27 8 27 5 Q25 9 21 9 Z" fill="#3fb55e"/>
</svg>
