<?xml version="1.0" encoding="UTF-8"?>
<svg width="32" height="32" viewBox="0 0 32 32" xmlns="http://www.w3.org/2000/svg">
  <!-- Синяя буква T -->
  <path d="M4 5 C4 4 5 3 6 3 L16 3 L16 7 L12 7 L12 24 C12 26 11 28 9 29 C8 29.5 7 29 7 29 C9 28 10 26 10 24 L10 7 L6 7 C5 7 4 6 4 5 Z" fill="#1a4872"/>
  <!-- Зелёный листок -->
  <path d="M16 3 L16 7 L20 7 C22 7 24 6 26 4 C27 3 28 2 28 2 C28 3 27 5 25 7 C23 9 21 10 19 11 C18 12 17 13 17 15 C17 13 18 11 20 9 C22 7 25 6 26 5 C24 7 22 8 20 8 L18 8 L18 3 Z" fill="#4cb963"/>
</svg>
